<svg width="151" height="59" viewBox="0 0 151 59" fill="none" xmlns="http://www.w3.org/2000/svg">
<path d="M6.924 54.954C7.012 54.954 7.09 54.988 7.158 55.056L7.794 55.746C7.442 56.182 7.008 56.516 6.492 56.748C5.98 56.98 5.364 57.096 4.644 57.096C4 57.096 3.42 56.986 2.904 56.766C2.392 56.546 1.954 56.24 1.59 55.848C1.226 55.456 0.946 54.988 0.75 54.444C0.558 53.9 0.462 53.306 0.462 52.662C0.462 52.01 0.566 51.414 0.774 50.874C0.982 50.33 1.274 49.862 1.65 49.47C2.03 49.078 2.482 48.774 3.006 48.558C3.53 48.338 4.11 48.228 4.746 48.228C5.378 48.228 5.938 48.332 6.426 48.54C6.918 48.748 7.336 49.02 7.68 49.356L7.14 50.106C7.108 50.154 7.066 50.196 7.014 50.232C6.966 50.268 6.898 50.286 6.81 50.286C6.75 50.286 6.688 50.27 6.624 50.238C6.56 50.202 6.49 50.16 6.414 50.112C6.338 50.06 6.25 50.004 6.15 49.944C6.05 49.884 5.934 49.83 5.802 49.782C5.67 49.73 5.516 49.688 5.34 49.656C5.168 49.62 4.968 49.602 4.74 49.602C4.352 49.602 3.996 49.672 3.672 49.812C3.352 49.948 3.076 50.148 2.844 50.412C2.612 50.672 2.432 50.992 2.304 51.372C2.176 51.748 2.112 52.178 2.112 52.662C2.112 53.15 2.18 53.584 2.316 53.964C2.456 54.344 2.644 54.664 2.88 54.924C3.116 55.184 3.394 55.384 3.714 55.524C4.034 55.66 4.378 55.728 4.746 55.728C4.966 55.728 5.164 55.716 5.34 55.692C5.52 55.668 5.684 55.63 5.832 55.578C5.984 55.526 6.126 55.46 6.258 55.38C6.394 55.296 6.528 55.194 6.66 55.074C6.7 55.038 6.742 55.01 6.786 54.99C6.83 54.966 6.876 54.954 6.924 54.954ZM14.9596 49.65H12.3436V57H10.7296V49.65H8.11359V48.324H14.9596V49.65ZM18.9149 52.686C19.2109 52.686 19.4689 52.65 19.6889 52.578C19.9089 52.502 20.0909 52.396 20.2349 52.26C20.3829 52.12 20.4929 51.952 20.5649 51.756C20.6369 51.556 20.6729 51.334 20.6729 51.09C20.6729 50.858 20.6369 50.648 20.5649 50.46C20.4929 50.272 20.3849 50.112 20.2409 49.98C20.0969 49.848 19.9149 49.748 19.6949 49.68C19.4749 49.608 19.2149 49.572 18.9149 49.572H17.7089V52.686H18.9149ZM18.9149 48.324C19.4949 48.324 19.9969 48.392 20.4209 48.528C20.8449 48.664 21.1949 48.854 21.4709 49.098C21.7469 49.342 21.9509 49.634 22.0829 49.974C22.2189 50.314 22.2869 50.686 22.2869 51.09C22.2869 51.51 22.2169 51.896 22.0769 52.248C21.9369 52.596 21.7269 52.896 21.4469 53.148C21.1669 53.4 20.8149 53.596 20.3909 53.736C19.9709 53.876 19.4789 53.946 18.9149 53.946H17.7089V57H16.0949V48.324H18.9149ZM31.7986 52.662C31.7986 53.298 31.6926 53.888 31.4806 54.432C31.2726 54.972 30.9766 55.44 30.5926 55.836C30.2086 56.232 29.7466 56.542 29.2066 56.766C28.6666 56.986 28.0666 57.096 27.4066 57.096C26.7506 57.096 26.1526 56.986 25.6126 56.766C25.0726 56.542 24.6086 56.232 24.2206 55.836C23.8366 55.44 23.5386 54.972 23.3266 54.432C23.1146 53.888 23.0086 53.298 23.0086 52.662C23.0086 52.026 23.1146 51.438 23.3266 50.898C23.5386 50.354 23.8366 49.884 24.2206 49.488C24.6086 49.092 25.0726 48.784 25.6126 48.564C26.1526 48.34 26.7506 48.228 27.4066 48.228C27.8466 48.228 28.2606 48.28 28.6486 48.384C29.0366 48.484 29.3926 48.628 29.7166 48.816C30.0406 49 30.3306 49.226 30.5866 49.494C30.8466 49.758 31.0666 50.054 31.2466 50.382C31.4266 50.71 31.5626 51.066 31.6546 51.45C31.7506 51.834 31.7986 52.238 31.7986 52.662ZM30.1486 52.662C30.1486 52.186 30.0846 51.76 29.9566 51.384C29.8286 51.004 29.6466 50.682 29.4106 50.418C29.1746 50.154 28.8866 49.952 28.5466 49.812C28.2106 49.672 27.8306 49.602 27.4066 49.602C26.9826 49.602 26.6006 49.672 26.2606 49.812C25.9246 49.952 25.6366 50.154 25.3966 50.418C25.1606 50.682 24.9786 51.004 24.8506 51.384C24.7226 51.76 24.6586 52.186 24.6586 52.662C24.6586 53.138 24.7226 53.566 24.8506 53.946C24.9786 54.322 25.1606 54.642 25.3966 54.906C25.6366 55.166 25.9246 55.366 26.2606 55.506C26.6006 55.646 26.9826 55.716 27.4066 55.716C27.8306 55.716 28.2106 55.646 28.5466 55.506C28.8866 55.366 29.1746 55.166 29.4106 54.906C29.6466 54.642 29.8286 54.322 29.9566 53.946C30.0846 53.566 30.1486 53.138 30.1486 52.662ZM40.53 48.324V57H38.91V51.564C38.91 51.36 38.914 51.146 38.922 50.922C38.934 50.698 38.958 50.46 38.994 50.208C38.914 50.432 38.826 50.64 38.73 50.832C38.638 51.02 38.548 51.186 38.46 51.33L35.142 56.502C35.106 56.562 35.062 56.622 35.01 56.682C34.962 56.742 34.908 56.796 34.848 56.844C34.788 56.888 34.722 56.926 34.65 56.958C34.578 56.986 34.504 57 34.428 57H33.216V48.324H34.836V53.76C34.836 53.964 34.83 54.18 34.818 54.408C34.81 54.632 34.788 54.87 34.752 55.122C34.832 54.898 34.918 54.69 35.01 54.498C35.106 54.306 35.2 54.138 35.292 53.994L38.604 48.822C38.64 48.762 38.682 48.702 38.73 48.642C38.782 48.582 38.838 48.53 38.898 48.486C38.958 48.438 39.022 48.4 39.09 48.372C39.162 48.34 39.238 48.324 39.318 48.324H40.53ZM51.8701 48.324V57H50.4481V51.396C50.4481 51.172 50.4601 50.93 50.4841 50.67L47.8621 55.596C47.7381 55.832 47.5481 55.95 47.2921 55.95H47.0641C46.8081 55.95 46.6181 55.832 46.4941 55.596L43.8421 50.652C43.8541 50.784 43.8641 50.914 43.8721 51.042C43.8801 51.17 43.8841 51.288 43.8841 51.396V57H42.4621V48.324H43.6801C43.7521 48.324 43.8141 48.326 43.8661 48.33C43.9181 48.334 43.9641 48.344 44.0041 48.36C44.0481 48.376 44.0861 48.402 44.1181 48.438C44.1541 48.474 44.1881 48.522 44.2201 48.582L46.8181 53.4C46.8861 53.528 46.9481 53.66 47.0041 53.796C47.0641 53.932 47.1221 54.072 47.1781 54.216C47.2341 54.068 47.2921 53.926 47.3521 53.79C47.4121 53.65 47.4761 53.516 47.5441 53.388L50.1061 48.582C50.1381 48.522 50.1721 48.474 50.2081 48.438C50.2441 48.402 50.2821 48.376 50.3221 48.36C50.3661 48.344 50.4141 48.334 50.4661 48.33C50.5181 48.326 50.5801 48.324 50.6521 48.324H51.8701ZM59.5438 52.686C59.8398 52.686 60.0978 52.65 60.3178 52.578C60.5378 52.502 60.7198 52.396 60.8638 52.26C61.0118 52.12 61.1218 51.952 61.1938 51.756C61.2658 51.556 61.3018 51.334 61.3018 51.09C61.3018 50.858 61.2658 50.648 61.1938 50.46C61.1218 50.272 61.0138 50.112 60.8698 49.98C60.7258 49.848 60.5438 49.748 60.3238 49.68C60.1038 49.608 59.8438 49.572 59.5438 49.572H58.3378V52.686H59.5438ZM59.5438 48.324C60.1238 48.324 60.6258 48.392 61.0498 48.528C61.4738 48.664 61.8238 48.854 62.0998 49.098C62.3758 49.342 62.5798 49.634 62.7118 49.974C62.8478 50.314 62.9158 50.686 62.9158 51.09C62.9158 51.51 62.8458 51.896 62.7058 52.248C62.5658 52.596 62.3558 52.896 62.0758 53.148C61.7958 53.4 61.4438 53.596 61.0198 53.736C60.5998 53.876 60.1078 53.946 59.5438 53.946H58.3378V57H56.7238V48.324H59.5438ZM65.7735 49.608V52.014H68.8095V53.256H65.7735V55.71H69.6255V57H64.1535V48.324H69.6255V49.608H65.7735ZM80.4638 48.324V57H79.0418V51.396C79.0418 51.172 79.0538 50.93 79.0778 50.67L76.4558 55.596C76.3318 55.832 76.1418 55.95 75.8858 55.95H75.6578C75.4018 55.95 75.2118 55.832 75.0878 55.596L72.4358 50.652C72.4478 50.784 72.4578 50.914 72.4658 51.042C72.4738 51.17 72.4778 51.288 72.4778 51.396V57H71.0558V48.324H72.2738C72.3458 48.324 72.4078 48.326 72.4598 48.33C72.5118 48.334 72.5578 48.344 72.5978 48.36C72.6418 48.376 72.6798 48.402 72.7118 48.438C72.7478 48.474 72.7818 48.522 72.8138 48.582L75.4118 53.4C75.4798 53.528 75.5418 53.66 75.5978 53.796C75.6578 53.932 75.7158 54.072 75.7718 54.216C75.8278 54.068 75.8858 53.926 75.9458 53.79C76.0058 53.65 76.0698 53.516 76.1378 53.388L78.6998 48.582C78.7318 48.522 78.7658 48.474 78.8018 48.438C78.8378 48.402 78.8758 48.376 78.9158 48.36C78.9598 48.344 79.0078 48.334 79.0598 48.33C79.1118 48.326 79.1738 48.324 79.2458 48.324H80.4638ZM90.6736 52.662C90.6736 53.298 90.5676 53.888 90.3556 54.432C90.1476 54.972 89.8516 55.44 89.4676 55.836C89.0836 56.232 88.6216 56.542 88.0816 56.766C87.5416 56.986 86.9416 57.096 86.2816 57.096C85.6256 57.096 85.0276 56.986 84.4876 56.766C83.9476 56.542 83.4836 56.232 83.0956 55.836C82.7116 55.44 82.4136 54.972 82.2016 54.432C81.9896 53.888 81.8836 53.298 81.8836 52.662C81.8836 52.026 81.9896 51.438 82.2016 50.898C82.4136 50.354 82.7116 49.884 83.0956 49.488C83.4836 49.092 83.9476 48.784 84.4876 48.564C85.0276 48.34 85.6256 48.228 86.2816 48.228C86.7216 48.228 87.1356 48.28 87.5236 48.384C87.9116 48.484 88.2676 48.628 88.5916 48.816C88.9156 49 89.2056 49.226 89.4616 49.494C89.7216 49.758 89.9416 50.054 90.1216 50.382C90.3016 50.71 90.4376 51.066 90.5296 51.45C90.6256 51.834 90.6736 52.238 90.6736 52.662ZM89.0236 52.662C89.0236 52.186 88.9596 51.76 88.8316 51.384C88.7036 51.004 88.5216 50.682 88.2856 50.418C88.0496 50.154 87.7616 49.952 87.4216 49.812C87.0856 49.672 86.7056 49.602 86.2816 49.602C85.8576 49.602 85.4756 49.672 85.1356 49.812C84.7996 49.952 84.5116 50.154 84.2716 50.418C84.0356 50.682 83.8536 51.004 83.7256 51.384C83.5976 51.76 83.5336 52.186 83.5336 52.662C83.5336 53.138 83.5976 53.566 83.7256 53.946C83.8536 54.322 84.0356 54.642 84.2716 54.906C84.5116 55.166 84.7996 55.366 85.1356 55.506C85.4756 55.646 85.8576 55.716 86.2816 55.716C86.7056 55.716 87.0856 55.646 87.4216 55.506C87.7616 55.366 88.0496 55.166 88.2856 54.906C88.5216 54.642 88.7036 54.322 88.8316 53.946C88.9596 53.566 89.0236 53.138 89.0236 52.662ZM99.405 48.324V57H97.785V53.208H93.711V57H92.091V48.324H93.711V52.056H97.785V48.324H99.405ZM107.397 49.65H104.781V57H103.167V49.65H100.551V48.324H107.397V49.65ZM115.846 48.324V57H114.226V51.564C114.226 51.36 114.23 51.146 114.238 50.922C114.25 50.698 114.274 50.46 114.31 50.208C114.23 50.432 114.142 50.64 114.046 50.832C113.954 51.02 113.864 51.186 113.776 51.33L110.458 56.502C110.422 56.562 110.378 56.622 110.326 56.682C110.278 56.742 110.224 56.796 110.164 56.844C110.104 56.888 110.038 56.926 109.966 56.958C109.894 56.986 109.82 57 109.744 57H108.532V48.324H110.152V53.76C110.152 53.964 110.146 54.18 110.134 54.408C110.126 54.632 110.104 54.87 110.068 55.122C110.148 54.898 110.234 54.69 110.326 54.498C110.422 54.306 110.516 54.138 110.608 53.994L113.92 48.822C113.956 48.762 113.998 48.702 114.046 48.642C114.098 48.582 114.154 48.53 114.214 48.486C114.274 48.438 114.338 48.4 114.406 48.372C114.478 48.34 114.554 48.324 114.634 48.324H115.846ZM120.599 52.686C120.895 52.686 121.153 52.65 121.373 52.578C121.593 52.502 121.775 52.396 121.919 52.26C122.067 52.12 122.177 51.952 122.249 51.756C122.321 51.556 122.357 51.334 122.357 51.09C122.357 50.858 122.321 50.648 122.249 50.46C122.177 50.272 122.069 50.112 121.925 49.98C121.781 49.848 121.599 49.748 121.379 49.68C121.159 49.608 120.899 49.572 120.599 49.572H119.393V52.686H120.599ZM120.599 48.324C121.179 48.324 121.681 48.392 122.105 48.528C122.529 48.664 122.879 48.854 123.155 49.098C123.431 49.342 123.635 49.634 123.767 49.974C123.903 50.314 123.971 50.686 123.971 51.09C123.971 51.51 123.901 51.896 123.761 52.248C123.621 52.596 123.411 52.896 123.131 53.148C122.851 53.4 122.499 53.596 122.075 53.736C121.655 53.876 121.163 53.946 120.599 53.946H119.393V57H117.779V48.324H120.599ZM132.09 48.324L128.586 55.794C128.462 56.054 128.33 56.268 128.19 56.436C128.05 56.604 127.898 56.736 127.734 56.832C127.574 56.928 127.4 56.994 127.212 57.03C127.028 57.07 126.83 57.09 126.618 57.09C126.33 57.09 126.12 57.064 125.988 57.012C125.856 56.96 125.79 56.884 125.79 56.784V55.776H126.258C126.346 55.776 126.436 55.768 126.528 55.752C126.62 55.736 126.71 55.704 126.798 55.656C126.89 55.608 126.978 55.54 127.062 55.452C127.146 55.364 127.224 55.248 127.296 55.104L127.638 54.408L124.158 48.324H125.67C125.81 48.324 125.922 48.358 126.006 48.426C126.09 48.494 126.16 48.58 126.216 48.684L127.902 51.864C127.994 52.04 128.076 52.214 128.148 52.386C128.224 52.558 128.29 52.734 128.346 52.914C128.45 52.554 128.584 52.204 128.748 51.864L130.218 48.684C130.262 48.596 130.328 48.514 130.416 48.438C130.504 48.362 130.616 48.324 130.752 48.324H132.09ZM134.563 49.608V52.014H137.599V53.256H134.563V55.71H138.415V57H132.943V48.324H138.415V49.608H134.563ZM149.253 48.324V57H147.831V51.396C147.831 51.172 147.843 50.93 147.867 50.67L145.245 55.596C145.121 55.832 144.931 55.95 144.675 55.95H144.447C144.191 55.95 144.001 55.832 143.877 55.596L141.225 50.652C141.237 50.784 141.247 50.914 141.255 51.042C141.263 51.17 141.267 51.288 141.267 51.396V57H139.845V48.324H141.063C141.135 48.324 141.197 48.326 141.249 48.33C141.301 48.334 141.347 48.344 141.387 48.36C141.431 48.376 141.469 48.402 141.501 48.438C141.537 48.474 141.571 48.522 141.603 48.582L144.201 53.4C144.269 53.528 144.331 53.66 144.387 53.796C144.447 53.932 144.505 54.072 144.561 54.216C144.617 54.068 144.675 53.926 144.735 53.79C144.795 53.65 144.859 53.516 144.927 53.388L147.489 48.582C147.521 48.522 147.555 48.474 147.591 48.438C147.627 48.402 147.665 48.376 147.705 48.36C147.749 48.344 147.797 48.334 147.849 48.33C147.901 48.326 147.963 48.324 148.035 48.324H149.253Z" fill="black"/>
<rect y="38" width="149" height="2" fill="#AE855C"/>
<path d="M13.926 32.264C12.166 32.264 10.538 31.978 9.042 31.406C7.568 30.812 6.281 29.987 5.181 28.931C4.103 27.853 3.256 26.599 2.64 25.169C2.024 23.739 1.716 22.166 1.716 20.45C1.716 18.734 2.024 17.161 2.64 15.731C3.256 14.301 4.114 13.058 5.214 12.002C6.314 10.924 7.601 10.099 9.075 9.527C10.571 8.933 12.199 8.636 13.959 8.636C15.741 8.636 17.38 8.944 18.876 9.56C20.394 10.154 21.681 11.045 22.737 12.233L20.592 14.312C19.712 13.388 18.722 12.706 17.622 12.266C16.522 11.804 15.345 11.573 14.091 11.573C12.793 11.573 11.583 11.793 10.461 12.233C9.361 12.673 8.404 13.289 7.59 14.081C6.776 14.873 6.138 15.819 5.676 16.919C5.236 17.997 5.016 19.174 5.016 20.45C5.016 21.726 5.236 22.914 5.676 24.014C6.138 25.092 6.776 26.027 7.59 26.819C8.404 27.611 9.361 28.227 10.461 28.667C11.583 29.107 12.793 29.327 14.091 29.327C15.345 29.327 16.522 29.107 17.622 28.667C18.722 28.205 19.712 27.501 20.592 26.555L22.737 28.634C21.681 29.822 20.394 30.724 18.876 31.34C17.38 31.956 15.73 32.264 13.926 32.264ZM26.7555 32V14.51H34.8735C36.9195 14.51 38.5255 14.906 39.6915 15.698C40.8795 16.468 41.4735 17.568 41.4735 18.998C41.4735 20.428 40.9125 21.539 39.7905 22.331C38.6905 23.101 37.2275 23.486 35.4015 23.486L35.8965 22.628C37.9865 22.628 39.5375 23.013 40.5495 23.783C41.5615 24.553 42.0675 25.686 42.0675 27.182C42.0675 28.7 41.4955 29.888 40.3515 30.746C39.2295 31.582 37.5025 32 35.1705 32H26.7555ZM29.8575 29.558H34.9395C36.2595 29.558 37.2495 29.36 37.9095 28.964C38.5695 28.546 38.8995 27.886 38.8995 26.984C38.8995 26.06 38.5915 25.389 37.9755 24.971C37.3815 24.531 36.4355 24.311 35.1375 24.311H29.8575V29.558ZM29.8575 22.034H34.6095C35.8195 22.034 36.7325 21.814 37.3485 21.374C37.9865 20.912 38.3055 20.274 38.3055 19.46C38.3055 18.624 37.9865 17.997 37.3485 17.579C36.7325 17.161 35.8195 16.952 34.6095 16.952H29.8575V22.034ZM57.751 32V28.304L57.586 27.611V21.308C57.586 19.966 57.19 18.932 56.398 18.206C55.628 17.458 54.462 17.084 52.9 17.084C51.866 17.084 50.854 17.26 49.864 17.612C48.874 17.942 48.038 18.393 47.356 18.965L46.036 16.589C46.938 15.863 48.016 15.313 49.27 14.939C50.546 14.543 51.877 14.345 53.263 14.345C55.661 14.345 57.509 14.928 58.807 16.094C60.105 17.26 60.754 19.042 60.754 21.44V32H57.751ZM52.009 32.198C50.711 32.198 49.567 31.978 48.577 31.538C47.609 31.098 46.861 30.493 46.333 29.723C45.805 28.931 45.541 28.04 45.541 27.05C45.541 26.104 45.761 25.246 46.201 24.476C46.663 23.706 47.4 23.09 48.412 22.628C49.446 22.166 50.832 21.935 52.57 21.935H58.114V24.212H52.702C51.118 24.212 50.051 24.476 49.501 25.004C48.951 25.532 48.676 26.17 48.676 26.918C48.676 27.776 49.017 28.469 49.699 28.997C50.381 29.503 51.327 29.756 52.537 29.756C53.725 29.756 54.759 29.492 55.639 28.964C56.541 28.436 57.19 27.666 57.586 26.654L58.213 28.832C57.795 29.866 57.058 30.691 56.002 31.307C54.946 31.901 53.615 32.198 52.009 32.198ZM66.4586 32V14.51H69.6266V27.248L80.3516 14.51H83.2226V32H80.0546V19.262L69.3626 32H66.4586Z" fill="black"/>
<path d="M95.0807 32.396C93.4747 32.396 91.8797 32.187 90.2957 31.769C88.7117 31.329 87.3697 30.713 86.2697 29.921L88.3487 25.829C89.2287 26.467 90.2517 26.973 91.4177 27.347C92.5837 27.721 93.7607 27.908 94.9487 27.908C96.2907 27.908 97.3467 27.644 98.1167 27.116C98.8867 26.588 99.2717 25.862 99.2717 24.938C99.2717 24.058 98.9307 23.365 98.2487 22.859C97.5667 22.353 96.4667 22.1 94.9487 22.1H92.5067V18.569L98.9417 11.276L99.5357 13.19H87.4247V8.9H103.595V12.365L97.1927 19.658L94.4867 18.107H96.0377C98.8757 18.107 101.021 18.745 102.473 20.021C103.925 21.297 104.651 22.936 104.651 24.938C104.651 26.236 104.31 27.457 103.628 28.601C102.946 29.723 101.901 30.636 100.493 31.34C99.0847 32.044 97.2807 32.396 95.0807 32.396ZM117.448 32.396C115.336 32.396 113.499 31.956 111.937 31.076C110.397 30.196 109.209 28.909 108.373 27.215C107.537 25.521 107.119 23.431 107.119 20.945C107.119 18.283 107.614 16.028 108.604 14.18C109.616 12.332 111.002 10.924 112.762 9.956C114.544 8.988 116.59 8.504 118.9 8.504C120.132 8.504 121.309 8.636 122.431 8.9C123.553 9.164 124.521 9.56 125.335 10.088L123.355 14.015C122.717 13.575 122.035 13.278 121.309 13.124C120.583 12.948 119.824 12.86 119.032 12.86C117.03 12.86 115.446 13.465 114.28 14.675C113.114 15.885 112.531 17.678 112.531 20.054C112.531 20.45 112.531 20.89 112.531 21.374C112.553 21.858 112.619 22.342 112.729 22.826L111.244 21.44C111.662 20.582 112.201 19.867 112.861 19.295C113.521 18.701 114.302 18.261 115.204 17.975C116.128 17.667 117.14 17.513 118.24 17.513C119.736 17.513 121.078 17.81 122.266 18.404C123.454 18.998 124.4 19.834 125.104 20.912C125.83 21.99 126.193 23.255 126.193 24.707C126.193 26.269 125.797 27.633 125.005 28.799C124.235 29.943 123.19 30.834 121.87 31.472C120.572 32.088 119.098 32.396 117.448 32.396ZM117.151 28.403C117.899 28.403 118.559 28.271 119.131 28.007C119.725 27.721 120.187 27.314 120.517 26.786C120.847 26.258 121.012 25.653 121.012 24.971C121.012 23.915 120.649 23.079 119.923 22.463C119.219 21.825 118.273 21.506 117.085 21.506C116.293 21.506 115.6 21.66 115.006 21.968C114.412 22.254 113.939 22.661 113.587 23.189C113.257 23.695 113.092 24.289 113.092 24.971C113.092 25.631 113.257 26.225 113.587 26.753C113.917 27.259 114.379 27.666 114.973 27.974C115.567 28.26 116.293 28.403 117.151 28.403ZM135.985 32.396C134.379 32.396 132.784 32.187 131.2 31.769C129.638 31.329 128.296 30.713 127.174 29.921L129.286 25.829C130.166 26.467 131.178 26.973 132.322 27.347C133.488 27.721 134.665 27.908 135.853 27.908C137.195 27.908 138.251 27.644 139.021 27.116C139.791 26.588 140.176 25.851 140.176 24.905C140.176 24.311 140.022 23.783 139.714 23.321C139.406 22.859 138.856 22.507 138.064 22.265C137.294 22.023 136.205 21.902 134.797 21.902H128.89L130.078 8.9H144.169V13.19H131.992L134.764 10.748L133.939 20.021L131.167 17.579H136.051C138.339 17.579 140.176 17.898 141.562 18.536C142.97 19.152 143.993 19.999 144.631 21.077C145.269 22.155 145.588 23.376 145.588 24.74C145.588 26.104 145.247 27.369 144.565 28.535C143.883 29.679 142.827 30.614 141.397 31.34C139.989 32.044 138.185 32.396 135.985 32.396Z" fill="#AE855C"/>
</svg>
