<svg width="101" height="101" fill="none" xmlns="http://www.w3.org/2000/svg"><g clip-path="url(#clip0)"><path d="M62.44 43.338a8.494 8.494 0 100-16.989 8.494 8.494 0 000 16.99z" fill="#FFE07D"/><path d="M65.509 26.922a8.494 8.494 0 01-10.527 11.986 8.494 8.494 0 1010.527-11.986z" fill="#FFD064"/><path d="M51.672 34.844a8.494 8.494 0 100-16.99 8.494 8.494 0 000 16.99z" fill="#FFE07D"/><path d="M54.74 18.428a8.494 8.494 0 01-10.527 11.986A8.494 8.494 0 1054.74 18.428z" fill="#FFD064"/><path d="M50.5 99.525c-15.117 0-29.16-6.818-38.526-18.705l4.603-3.627c8.041 10.205 19.995 16.167 32.922 16.46 24.053.544 43.812-18.46 44.16-42.515a43.25 43.25 0 00-1.677-12.612.974.974 0 01.648-1.197l3.73-1.165a.98.98 0 011.232.665A49.06 49.06 0 0199.524 50.5c0 13.095-5.1 25.406-14.359 34.666-9.26 9.26-21.57 14.359-34.665 14.359zM4.525 64.462a.98.98 0 01-1.227-.674A49.1 49.1 0 011.476 50.5c0-13.095 5.1-25.406 14.358-34.666C25.095 6.574 37.406 1.476 50.5 1.476c15.113 0 29.153 6.814 38.52 18.697L84.419 23.8C76.17 13.337 63.807 7.336 50.5 7.336 26.7 7.336 7.336 26.7 7.336 50.5c0 3.956.534 7.866 1.586 11.636a.974.974 0 01-.658 1.192l-3.74 1.134z" fill="#EC9D0C"/><path d="M97.593 36.829a.98.98 0 00-1.232-.665l-1.915.598A49.058 49.058 0 0196.398 50.5c0 13.095-5.1 25.406-14.36 34.665-8.892 8.894-20.6 13.946-33.114 14.333.524.016 1.05.026 1.577.026 13.095 0 25.406-5.099 34.665-14.359 9.26-9.259 14.359-21.57 14.359-34.665 0-4.652-.65-9.246-1.932-13.671zM50.5 1.476a49.54 49.54 0 00-9.376.892 49.914 49.914 0 015.473-.303c15.113 0 29.153 6.814 38.52 18.697l-1.945 1.534c.424.492.842.991 1.246 1.505l4.603-3.628C79.654 8.29 65.614 1.476 50.501 1.476z" fill="#EC9D0C"/><path d="M90.157 26.199H74.463a.977.977 0 01-.977-.977v-3.908c0-.539.438-.976.977-.976h11.005V9.333c0-.54.438-.977.977-.977h3.907c.54 0 .977.437.977.977v15.693c0 .648-.525 1.173-1.172 1.173z" fill="#EC9D0C"/><path d="M90.352 8.356h-1.927v13.766c0 .648-.525 1.172-1.172 1.172H73.486v1.928c0 .54.438.977.977.977h15.694c.647 0 1.172-.525 1.172-1.173V9.333a.977.977 0 00-.977-.977zM14.554 92.639h-3.907a.977.977 0 01-.977-.977V75.968c0-.647.525-1.172 1.172-1.172h15.694c.54 0 .977.437.977.977v3.907c0 .54-.438.977-.977.977H15.53v11.005c0 .54-.438.977-.977.977z" fill="#EC9D0C"/><path d="M26.536 74.796h-1.807v2.1c0 .54-.438.977-.977.977h-9.833c-.648 0-1.172.524-1.172 1.172v9.833c0 .54-.438.977-.977.977h-2.1v1.807c0 .54.437.977.977.977h3.907c.54 0 .977-.438.977-.977V80.657h11.005c.54 0 .977-.438.977-.977v-3.907a.977.977 0 00-.977-.977z" fill="#EC9D0C"/><path d="M73.353 69.767H28.038a3.55 3.55 0 01-3.55-3.551V36.319a3.55 3.55 0 013.55-3.551h45.316a3.55 3.55 0 013.55 3.55v29.898a3.55 3.55 0 01-3.55 3.55z" fill="#9E724A"/><path d="M73.388 32.768h-2.935v29.19c0 .75-.608 1.358-1.358 1.358H24.487v2.934a3.516 3.516 0 003.517 3.517h45.384a3.516 3.516 0 003.516-3.517V36.284a3.516 3.516 0 00-3.516-3.516z" fill="#9E724A"/><path d="M35.836 56.884H22.769a1.973 1.973 0 01-1.973-1.973v-7.288c0-1.089.883-1.972 1.973-1.972h13.067c1.09 0 1.972.883 1.972 1.972v7.288c0 1.09-.883 1.973-1.972 1.973z" fill="#F4FBFF"/><path d="M35.854 45.65H34.62v6.094a1.954 1.954 0 01-1.953 1.954H20.795v1.232c0 1.08.875 1.954 1.953 1.954h13.106a1.954 1.954 0 001.953-1.954v-7.325a1.953 1.953 0 00-1.953-1.954z" fill="#E4F6FF"/><path d="M28.13 26.163c6.742 0 12.208-5.466 12.208-12.209 0-6.743-5.466-12.209-12.209-12.209-6.742 0-12.208 5.466-12.208 12.209 0 6.743 5.466 12.209 12.209 12.209z" fill="#FFE07D"/><path d="M34.175 3.349a12.148 12.148 0 011.603 6.045c0 6.742-5.466 12.208-12.209 12.208-2.2 0-4.262-.585-6.045-1.603 2.103 3.68 6.063 6.164 10.606 6.164 6.742 0 12.208-5.466 12.208-12.209 0-4.543-2.483-8.503-6.163-10.605z" fill="#FFD064"/><path d="M10.343 61.74A41.799 41.799 0 018.812 50.5c0-9.82 3.455-19.264 9.757-26.769a13.636 13.636 0 009.56 3.907c7.546 0 13.685-6.139 13.685-13.684 0-1.425-.22-2.8-.626-4.093a41.75 41.75 0 019.312-1.05c10.113 0 19.627 3.545 27.162 10.052h-3.198a2.455 2.455 0 00-2.452 2.452v3.907c0 1.352 1.1 2.452 2.452 2.452h15.694a2.65 2.65 0 002.648-2.647V9.333c0-1.352-1.1-2.452-2.453-2.452h-3.907a2.455 2.455 0 00-2.452 2.452v3.36C74.775 4.483 63.01 0 50.5 0c-5.19 0-10.298.78-15.186 2.314A13.598 13.598 0 0028.13.27c-7.546 0-13.684 6.139-13.684 13.684a13.6 13.6 0 002.22 7.458A44.513 44.513 0 005.86 50.5c0 3.92.508 7.805 1.51 11.557l-2.786.845A47.673 47.673 0 012.95 50.5c0-10.086 3.097-19.698 8.956-27.796a1.475 1.475 0 10-2.39-1.73C3.29 29.58 0 39.79 0 50.5c0 4.647.632 9.252 1.878 13.687.333 1.296 1.806 2.103 3.075 1.687l3.74-1.134a2.463 2.463 0 001.65-3zm74.072-44.57a1.475 1.475 0 002.53-1.032V9.832h2.91v14.891H74.963v-2.91h6.415a1.475 1.475 0 001.056-2.505C73.987 10.637 62.646 5.861 50.5 5.861a44.67 44.67 0 00-10.526 1.254 13.752 13.752 0 00-1.889-2.534A47.806 47.806 0 0150.5 2.95c12.886 0 24.931 5.05 33.915 14.22zM28.13 3.22c5.919 0 10.733 4.816 10.733 10.734S34.048 24.687 28.13 24.687s-10.733-4.815-10.733-10.733S22.212 3.22 28.13 3.22zm55.992 80.902C75.142 93.103 63.2 98.05 50.5 98.05c-6.66 0-13.094-1.34-19.122-3.985a1.475 1.475 0 10-1.185 2.703C36.596 99.576 43.429 101 50.5 101c13.489 0 26.17-5.253 35.709-14.791a1.475 1.475 0 10-2.087-2.087z" fill="#000"/><path d="M99.01 36.418a2.44 2.44 0 00-1.198-1.481 2.435 2.435 0 00-1.89-.181L92.19 35.92a2.462 2.462 0 00-1.626 3.013 41.786 41.786 0 011.62 12.183c-.163 11.226-4.68 21.676-12.722 29.424-8.052 7.759-18.682 11.89-29.93 11.636-9.744-.22-18.918-3.76-26.2-10.045h3.204c1.352 0 2.452-1.1 2.452-2.452v-3.907c0-1.352-1.1-2.452-2.453-2.452H10.844a2.65 2.65 0 00-2.648 2.647v15.694c0 1.352 1.1 2.452 2.453 2.452h3.907c1.352 0 2.452-1.1 2.452-2.452v-3.357a50.386 50.386 0 007.113 5.285 1.475 1.475 0 101.544-2.515 47.569 47.569 0 01-9.079-7.245 1.476 1.476 0 00-2.529 1.033v6.3h-2.91V76.273h14.892v2.91h-6.421a1.475 1.475 0 00-1.058 2.505c8.182 8.401 19.158 13.175 30.908 13.441.35.008.7.012 1.05.012 11.65 0 22.622-4.407 30.994-12.474 8.612-8.298 13.45-19.487 13.624-31.506a44.757 44.757 0 00-1.6-12.567l2.778-.868a47.644 47.644 0 011.736 12.776c0 10.46-3.312 20.363-9.577 28.634a1.476 1.476 0 102.352 1.782c6.657-8.79 10.177-19.307 10.177-30.417 0-4.786-.67-9.524-1.991-14.082z" fill="#000"/><path d="M28.004 71.242h45.384a4.998 4.998 0 004.992-4.992V36.285a4.998 4.998 0 00-4.992-4.992h-1.63c-1.457-3.82-5.168-6.418-9.316-6.418-.302 0-.604.017-.904.044-.696-4.822-4.854-8.539-9.865-8.539-5.498 0-9.97 4.472-9.97 9.97 0 1.743.465 3.449 1.317 4.943H28.004a4.998 4.998 0 00-4.992 4.992v7.891h-.249a3.447 3.447 0 00-3.443 3.443v7.299a3.447 3.447 0 003.443 3.442h.249v7.891a4.998 4.998 0 004.992 4.992zm40.492-39.95h-8.162a9.83 9.83 0 001.191-3.406c.303-.04.61-.061.917-.061a7.05 7.05 0 016.054 3.467zM44.653 26.35c0-3.87 3.15-7.019 7.02-7.019 3.87 0 7.019 3.149 7.019 7.02 0 1.87-.725 3.62-2.04 4.942h-9.96a6.946 6.946 0 01-2.039-4.943zm-18.69 14.36h1.345a1.475 1.475 0 100-2.95h-1.345v-1.475c0-1.125.915-2.04 2.04-2.04h45.385c1.125 0 2.04.915 2.04 2.04V66.25a2.042 2.042 0 01-2.04 2.041H28.004a2.043 2.043 0 01-2.041-2.04v-1.476h1.345a1.475 1.475 0 100-2.95h-1.345v-3.466h9.878a3.447 3.447 0 003.443-3.443v-7.298a3.447 3.447 0 00-3.443-3.443h-9.878V40.71zM22.27 54.918v-7.299c0-.271.22-.492.492-.492H35.84c.271 0 .492.221.492.492v7.299a.493.493 0 01-.492.492H22.763a.493.493 0 01-.492-.492z" fill="#000"/><path d="M30.478 49.987H28.13a1.476 1.476 0 000 2.951h2.348a1.475 1.475 0 100-2.95zm14.808-9.277h5.047a1.476 1.476 0 100-2.951h-5.047a1.476 1.476 0 000 2.95zm11.534 0h5.047a1.476 1.476 0 100-2.951H56.82a1.476 1.476 0 000 2.95zm-16.547-1.475c0-.815-.66-1.476-1.476-1.476h-5.046a1.476 1.476 0 000 2.951h5.046c.816 0 1.476-.66 1.476-1.475zm27.842 1.475h1.346v1.346a1.476 1.476 0 002.95 0V40.21c0-1.352-1.1-2.452-2.452-2.452h-1.844a1.476 1.476 0 000 2.95zm2.821 6.503c-.815 0-1.476.66-1.476 1.475v5.195a1.476 1.476 0 102.951 0v-5.195c0-.815-.66-1.475-1.475-1.475zm-2.821 17.563h1.844c1.352 0 2.452-1.1 2.452-2.452v-1.845a1.476 1.476 0 00-2.951 0v1.346h-1.346a1.476 1.476 0 100 2.95zm-29.513-2.951h-5.046a1.476 1.476 0 000 2.95h5.046a1.475 1.475 0 100-2.95zm6.488 2.951h5.046a1.475 1.475 0 100-2.951H45.09a1.476 1.476 0 000 2.95zm11.535 0h5.046a1.476 1.476 0 100-2.951h-5.046a1.476 1.476 0 000 2.95zM28.886 9.58c1.133 0 2 .18 2.6.54.613.347.92.86.92 1.54 0 .987-.353 1.707-1.06 2.16-.693.44-1.72.653-3.08.64l-3.82-.02c-.093 0-.14-.087-.14-.26 0-.173.047-.26.14-.26h1.04v-2.66c0-.387-.04-.673-.12-.86a.6.6 0 00-.38-.4c-.173-.08-.44-.12-.8-.12-.027 0-.04-.04-.04-.12 0-.08.013-.12.04-.12l.98.02c.56.027.993.04 1.3.04.347 0 .707-.02 1.08-.06.147-.013.353-.027.62-.04.28-.013.52-.02.72-.02zm-.72 4.34c.587 0 1.02-.053 1.3-.16.28-.107.467-.287.56-.54.093-.253.14-.64.14-1.16 0-.76-.147-1.3-.44-1.62-.293-.333-.727-.5-1.3-.5-.333 0-.58.093-.74.28-.147.173-.22.533-.22 1.08v2.62h.7zm3.2 1.34c.053 0 .093.027.12.08a.39.39 0 01.04.18.396.396 0 01-.04.18c-.027.053-.067.08-.12.08h-3.9v1.52c0 .413.04.72.12.92.093.2.26.34.5.42.253.08.64.12 1.16.12.04 0 .06.04.06.12 0 .08-.02.12-.06.12-.507 0-.9-.007-1.18-.02l-1.58-.02-1.3.02c-.24.013-.573.02-1 .02-.027 0-.04-.04-.04-.12 0-.08.013-.12.04-.12.373 0 .647-.033.82-.1a.662.662 0 00.38-.4c.067-.187.1-.48.1-.88v-1.6h-1.08c-.04 0-.073-.027-.1-.08a.398.398 0 01-.04-.18.39.39 0 01.04-.18c.027-.053.06-.08.1-.08h6.96z" fill="#000"/></g><defs><clipPath id="clip0"><path fill="#fff" d="M0 0h101v101H0z"/></clipPath></defs></svg>